<?xml version="1.0" standalone="no"?>
<!DOCTYPE svg PUBLIC "-//W3C//DTD SVG 20010904//EN"
 "http://www.w3.org/TR/2001/REC-SVG-20010904/DTD/svg10.dtd">
<svg version="1.0" xmlns="http://www.w3.org/2000/svg"
 width="485.000000pt" height="485.000000pt" viewBox="0 0 485.000000 485.000000"
 preserveAspectRatio="xMidYMid meet">
<metadata>
Created by potrace 1.14, written by Peter Selinger 2001-2017
</metadata>
<g transform="translate(0.000000,485.000000) scale(0.100000,-0.100000)"
fill="#000000" stroke="none">
<path d="M48 4838 c-3 -7 -6 -35 -7 -63 -2 -27 -7 -56 -13 -63 -6 -6 -11 -41
-12 -76 0 -35 -4 -68 -8 -72 -4 -4 -8 -1032 -8 -2285 l0 -2279 29 0 c30 0 30
1 28 50 -1 36 2 54 13 60 10 7 11 13 5 17 -6 5 -10 20 -10 35 1 16 -2 28 -5
28 -9 0 -9 153 -1 165 13 17 21 46 12 40 -6 -3 -10 7 -10 22 0 16 -1 35 -2 43
-6 44 2 160 11 160 17 0 32 -52 32 -114 0 -41 3 -55 10 -45 7 10 8 7 5 -13 -3
-19 0 -25 10 -21 7 3 13 0 13 -6 0 -6 -5 -11 -11 -11 -8 0 -8 -4 1 -15 6 -8 8
-20 4 -27 -6 -10 -3 -9 9 1 10 8 17 9 17 3 0 -6 -4 -13 -10 -17 -5 -3 -6 -13
-3 -21 4 -11 8 -12 13 -4 5 8 9 7 13 -4 4 -9 2 -16 -3 -16 -6 0 -10 -7 -10
-16 0 -9 5 -12 12 -8 9 5 8 2 -1 -9 -11 -14 -12 -22 -2 -40 7 -13 13 -37 13
-55 1 -18 5 -32 10 -32 5 0 7 -15 4 -32 -9 -55 4 -118 24 -118 14 0 17 7 14
43 -5 65 -13 129 -20 161 -5 21 -4 27 5 22 16 -10 14 9 -3 23 -14 12 -16 57
-3 79 5 7 4 12 -3 12 -6 0 -10 16 -9 38 1 20 -2 57 -6 81 -6 35 -5 42 5 36 10
-6 11 -4 6 11 -5 10 -9 26 -10 34 -1 8 -6 23 -10 32 -5 10 -2 30 7 48 14 26
14 30 1 30 -9 0 -12 5 -9 10 4 6 11 7 17 4 5 -4 3 5 -7 19 -9 14 -16 45 -17
69 0 24 -3 48 -6 53 -8 12 -13 33 -16 62 -1 13 -6 26 -9 30 -4 3 -7 21 -7 40
0 23 5 33 15 33 8 0 15 -4 15 -10 0 -5 -4 -10 -10 -10 -5 0 -10 -4 -10 -8 0
-5 10 -8 22 -8 13 1 22 -4 21 -11 -2 -7 2 -13 7 -13 7 0 7 -6 1 -19 -9 -17 -8
-18 12 -14 12 3 19 2 15 -2 -4 -4 -1 -20 7 -36 18 -34 19 -69 3 -69 -10 0 -10
-2 -1 -8 7 -4 11 -33 11 -74 0 -36 3 -72 7 -79 5 -8 4 -10 -3 -5 -7 4 -12 1
-12 -8 0 -9 6 -16 13 -16 11 0 14 -15 18 -87 1 -13 6 -20 11 -17 7 4 8 -5 3
-25 -4 -20 -3 -31 5 -31 6 0 8 -4 5 -10 -3 -5 -1 -10 5 -10 6 0 10 -8 8 -18
-1 -9 3 -30 9 -47 7 -16 17 -73 23 -125 6 -52 14 -113 17 -134 4 -28 3 -37 -5
-32 -7 4 -12 2 -12 -3 0 -6 5 -11 11 -11 5 0 7 -5 4 -10 -5 -8 -11 -7 -21 1
-16 13 -19 36 -5 41 5 1 4 11 -3 20 -12 16 -13 14 -11 -15 1 -17 5 -40 9 -49
8 -17 130 -18 2267 -18 l2259 0 0 115 c0 63 -4 123 -10 133 -5 9 -21 42 -35
72 -14 30 -41 82 -60 115 -19 33 -34 68 -35 77 0 28 -22 68 -36 68 -7 0 -11 6
-8 13 2 7 -4 22 -15 34 -33 35 -61 86 -61 111 0 12 -7 25 -15 28 -8 4 -15 15
-15 26 0 11 -7 27 -16 35 -13 13 -13 17 -2 24 10 7 10 9 1 9 -7 0 -13 6 -13
14 0 8 -7 16 -15 20 -8 3 -15 15 -15 26 0 21 -67 160 -82 170 -4 3 -14 25 -22
49 -9 23 -25 54 -36 68 -22 28 -28 79 -9 67 8 -5 10 0 6 17 -19 81 -31 115
-44 126 -8 6 -12 16 -8 22 8 14 25 14 25 0 0 -11 110 -239 120 -249 3 -3 31
-59 63 -125 32 -66 62 -127 67 -135 6 -8 15 -26 20 -39 6 -13 13 -22 16 -19 2
3 -33 81 -80 174 -46 93 -87 179 -91 192 -3 12 -11 22 -16 22 -5 0 -9 9 -9 20
0 11 -4 28 -10 38 -13 23 -50 110 -50 116 0 3 -12 31 -26 62 -26 56 -26 59
-15 163 6 58 11 116 11 127 0 27 -27 39 -49 22 -9 -7 -5 0 8 15 16 18 27 23
32 16 4 -8 9 -8 13 -1 3 6 2 13 -4 17 -5 3 -8 27 -5 53 2 26 2 38 -1 27 -3
-11 -8 -27 -11 -35 -3 -8 -5 -19 -4 -23 1 -4 -5 -15 -14 -23 -13 -14 -15 -13
-16 3 0 13 -3 12 -10 -7 -6 -14 -8 -42 -5 -63 7 -39 -7 -50 -32 -25 -16 16
-16 49 1 42 10 -3 12 5 9 31 -3 21 1 42 9 52 13 15 12 15 -8 3 -12 -8 -19 -18
-17 -22 3 -4 -4 -8 -15 -8 -15 0 -23 10 -32 43 -6 23 -16 52 -21 63 -7 14 -6
28 0 40 6 11 13 28 17 38 5 19 6 19 20 0 14 -18 14 -17 9 12 -4 21 0 40 11 58
17 26 17 26 -30 79 -27 28 -57 59 -68 68 -25 21 -40 119 -51 336 -2 45 -7 86
-10 91 -7 11 3 42 13 42 3 0 4 27 3 61 -3 39 2 79 13 112 18 52 29 161 40 391
3 66 8 122 10 125 2 4 7 57 10 118 5 77 4 113 -4 117 -6 4 -9 17 -6 29 10 39
11 131 3 162 -4 16 -4 33 1 38 5 5 6 21 1 36 -11 39 -3 175 14 224 7 23 21 85
31 137 9 52 21 103 26 112 5 10 6 24 3 31 -3 8 4 52 16 98 11 46 22 118 24
159 2 41 7 96 11 123 l7 47 -159 0 -160 0 8 -57 c7 -50 13 -209 9 -223 -1 -3
-4 -48 -6 -100 -5 -114 -8 -140 -30 -250 -9 -47 -17 -95 -19 -107 -1 -13 -5
-26 -8 -30 -4 -3 -7 -15 -7 -25 0 -10 -4 -26 -9 -36 -16 -30 -24 -56 -22 -74
2 -12 -4 -16 -18 -13 -15 3 -21 -1 -21 -16 0 -10 5 -19 10 -19 6 0 7 -7 1 -17
-20 -41 -41 -122 -35 -137 3 -9 1 -16 -5 -16 -6 0 -11 -6 -11 -14 0 -8 -5 -27
-11 -43 -7 -15 -13 -39 -15 -53 -2 -13 -10 -30 -19 -36 -8 -6 -15 -16 -15 -22
0 -6 -5 -23 -11 -39 -6 -15 -10 -30 -11 -33 0 -3 -3 -9 -8 -15 -4 -5 -11 -37
-15 -70 -3 -33 -20 -97 -36 -143 -16 -46 -29 -93 -29 -103 0 -11 -4 -18 -9
-14 -5 3 -12 1 -15 -4 -4 -5 -2 -12 4 -16 13 -8 -20 -54 -40 -55 -9 0 -24 -16
-34 -35 -11 -19 -25 -35 -32 -35 -7 0 -23 -10 -35 -22 -17 -18 -21 -19 -16 -5
9 23 -2 22 -24 -4 -13 -15 -25 -20 -40 -16 -12 3 -35 -1 -51 -9 -16 -8 -34
-14 -41 -13 -6 1 -19 0 -27 -3 -21 -8 -121 -27 -145 -28 -118 -5 -260 2 -283
14 -15 7 -52 17 -82 21 -30 4 -66 13 -80 19 -14 7 -33 11 -44 8 -11 -2 -16 0
-12 7 5 7 -4 11 -23 11 -17 0 -31 5 -31 10 0 6 -8 10 -18 10 -10 0 -22 4 -28
10 -5 5 -32 12 -59 15 -27 2 -51 9 -53 15 -2 5 -10 10 -18 10 -8 0 -14 5 -14
10 0 6 -12 10 -26 10 -14 0 -49 12 -78 27 -79 41 -85 43 -102 43 -23 0 -104
48 -104 61 0 6 -7 8 -16 5 -9 -4 -23 -1 -30 5 -8 6 -14 9 -14 5 0 -3 -9 3 -20
14 -11 11 -20 25 -20 30 0 6 -7 10 -14 10 -17 0 -66 42 -66 56 0 5 -10 15 -21
23 -19 11 -21 11 -16 -3 4 -10 1 -13 -9 -9 -7 3 -14 12 -14 20 0 8 -4 12 -8 9
-9 -5 -45 59 -48 84 -5 52 -6 53 -19 15 -7 -22 -13 -35 -14 -28 -1 7 -8 10
-16 7 -8 -4 -15 -1 -15 5 0 6 7 11 16 11 14 0 14 3 3 16 -10 13 -10 17 2 25
11 8 9 13 -14 30 -15 11 -25 24 -22 29 8 13 -27 21 -41 9 -17 -14 -18 -5 -3
23 9 18 9 20 -4 15 -12 -4 -18 6 -27 46 -18 81 -19 84 -30 67 -7 -11 -10 -12
-10 -2 0 7 -4 10 -10 7 -6 -4 -7 1 -3 10 3 10 0 21 -7 25 -11 7 -10 11 3 24
10 10 13 24 10 34 -6 14 -8 13 -14 -8 -6 -23 -7 -22 -11 10 l-5 35 -2 -35 -2
-35 -19 40 c-11 25 -15 44 -9 51 5 6 6 14 2 18 -10 10 -13 70 -3 76 4 3 11 16
15 29 6 20 4 23 -9 18 -15 -6 -17 0 -14 47 2 30 6 52 11 49 4 -2 10 4 14 13 4
10 2 19 -5 22 -7 2 -12 18 -12 35 0 25 3 29 11 17 8 -11 9 -7 6 18 -2 18 0 35
5 38 4 3 8 -12 9 -33 0 -21 3 -31 6 -23 2 8 7 22 10 30 4 12 7 12 19 -4 14
-20 14 -20 15 0 0 10 3 13 6 7 3 -10 8 -10 19 1 10 11 11 21 5 38 -9 21 -10
21 -11 3 -1 -19 -1 -19 -11 -2 -6 10 -9 27 -6 38 3 10 2 17 -2 15 -4 -3 -8 9
-8 27 -2 43 -8 75 -16 83 -10 11 -8 36 2 29 14 -8 18 4 25 70 4 33 11 62 16
63 6 2 10 10 10 18 0 8 5 14 10 14 6 0 10 25 10 55 0 30 5 55 10 55 6 0 10 9
10 21 0 11 5 17 10 14 6 -3 13 1 16 9 3 9 12 16 20 16 8 0 14 10 14 25 l0 25
-829 0 c-654 0 -830 -3 -833 -12z m1522 -348 c0 -5 -4 -10 -10 -10 -5 0 -10 5
-10 10 0 6 5 10 10 10 6 0 10 -4 10 -10z m0 -134 c0 -6 -5 -18 -11 -26 -8 -12
-9 -10 -4 7 3 12 1 24 -5 28 -5 3 -10 14 -10 23 1 15 2 15 15 -2 8 -11 15 -25
15 -30z m-80 -166 c0 -11 -2 -20 -4 -20 -2 0 -6 9 -9 20 -3 11 -1 20 4 20 5 0
9 -9 9 -20z m-11 -194 c-1 -24 -3 -26 -6 -8 -2 12 -9 22 -14 22 -5 0 -8 12 -7
26 2 23 4 24 15 8 7 -10 12 -32 12 -48z m-282 -105 c7 -10 9 -22 6 -25 -6 -6
-32 23 -33 37 0 14 15 7 27 -12z m103 -21 c0 -5 -4 -10 -10 -10 -5 0 -10 5
-10 10 0 6 5 10 10 10 6 0 10 -4 10 -10z m-192 -36 c0 -18 -3 -22 -9 -13 -11
18 -11 39 0 39 5 0 9 -12 9 -26z m218 -21 c-10 -10 -19 5 -10 18 6 11 8 11 12
0 2 -7 1 -15 -2 -18z m-177 -74 c1 -34 -7 -41 -30 -26 -24 15 -25 50 -2 73 16
15 17 15 24 -2 4 -11 8 -31 8 -45z m148 -1 c-3 -8 -6 -5 -6 6 -1 11 2 17 5 13
3 -3 4 -12 1 -19z m53 12 c0 -5 -4 -10 -10 -10 -5 0 -10 5 -10 10 0 6 5 10 10
10 6 0 10 -4 10 -10z m-150 -50 c-20 -13 -43 -13 -35 0 3 6 16 10 28 10 18 0
19 -2 7 -10z m120 -30 c0 -5 -5 -10 -11 -10 -5 0 -7 5 -4 10 3 6 8 10 11 10 2
0 4 -4 4 -10z m-110 -44 c0 -3 -4 -8 -10 -11 -5 -3 -10 -1 -10 4 0 6 5 11 10
11 6 0 10 -2 10 -4z m460 -76 c0 -5 -4 -10 -10 -10 -5 0 -10 5 -10 10 0 6 5
10 10 10 6 0 10 -4 10 -10z m-82 -216 c10 -11 17 -13 20 -5 2 7 9 6 19 -4 10
-11 19 -12 27 -6 8 7 19 2 35 -15 13 -13 35 -27 50 -31 26 -6 80 -40 93 -58 5
-7 8 -7 8 0 0 6 6 3 13 -6 16 -21 105 -70 133 -73 29 -3 56 -25 47 -39 -4 -6
0 -8 10 -4 9 3 19 2 22 -4 4 -5 10 -7 15 -4 11 6 51 -14 63 -32 4 -6 26 -14
50 -18 63 -10 117 -27 117 -37 0 -5 4 -7 10 -3 9 6 15 3 77 -29 17 -9 39 -16
48 -16 9 0 29 -6 43 -14 15 -7 41 -19 57 -26 17 -7 38 -16 47 -21 10 -5 46
-19 80 -31 65 -22 121 -50 148 -73 8 -7 24 -15 35 -17 18 -3 20 -11 19 -85 -1
-64 2 -83 13 -87 9 -4 13 -13 9 -21 -3 -9 5 -24 19 -37 14 -12 25 -30 25 -40
0 -17 2 -17 24 -3 l24 16 -9 -42 c-6 -23 -12 -47 -16 -52 -3 -5 0 -13 7 -17
10 -6 10 -28 0 -106 -6 -55 -13 -124 -15 -154 -2 -30 -9 -56 -14 -58 -6 -2
-11 -10 -11 -17 0 -8 -8 -18 -17 -24 -15 -8 -15 -11 -3 -26 11 -13 11 -18 1
-24 -9 -6 -9 -15 -1 -35 11 -29 4 -110 -11 -136 -5 -10 -8 -11 -9 -2 0 8 -6 6
-18 -5 -10 -10 -17 -27 -15 -38 3 -15 0 -13 -12 8 -8 15 -20 27 -26 27 -6 0
-9 7 -5 15 6 15 -34 50 -44 37 -17 -24 -37 -4 -31 31 1 5 -4 7 -11 5 -15 -5
-47 33 -53 64 -3 12 2 35 10 52 10 20 12 33 5 40 -7 7 -10 3 -10 -12 0 -13 -6
-22 -15 -22 -8 0 -15 6 -15 13 0 8 -4 7 -10 -3 -8 -13 -10 -12 -10 3 0 24 -18
21 -22 -4 l-3 -20 -21 20 c-12 11 -24 26 -27 33 -3 10 -9 8 -19 -6 -18 -23
-45 -16 -58 16 -7 18 -9 19 -9 6 -1 -10 -5 -18 -11 -18 -5 0 -9 -3 -9 -7 1 -5
1 -21 -1 -38 -1 -25 -3 -27 -9 -11 -7 18 -8 18 -14 -5 -4 -13 -7 -36 -7 -51 0
-18 -5 -28 -15 -28 -9 0 -15 -9 -16 -22 0 -22 -1 -22 -11 2 l-10 25 -10 -27
c-10 -29 -38 -46 -38 -23 0 23 -22 29 -36 10 -8 -11 -21 -16 -34 -12 -17 4
-20 0 -20 -25 0 -25 -3 -28 -20 -24 -11 3 -29 8 -39 11 -11 3 -22 1 -26 -5
-11 -18 -49 -28 -67 -19 -11 6 -22 4 -32 -7 -9 -8 -16 -12 -16 -8 0 4 -11 -6
-25 -22 -15 -17 -28 -25 -33 -19 -23 32 -51 46 -69 36 -21 -10 -28 -5 -66 49
-9 13 -17 18 -17 11 0 -8 -6 -11 -15 -7 -11 4 -15 -2 -15 -24 0 -36 7 -38 20
-7 8 20 9 19 9 -11 1 -19 5 -31 11 -27 6 3 10 1 10 -4 0 -21 -57 -12 -74 12
l-17 22 5 -30 c3 -17 1 -37 -5 -45 -7 -13 -9 -12 -9 3 0 19 -13 22 -41 7 -15
-9 -21 -7 -25 5 -8 20 -24 19 -24 -1 0 -8 -7 -22 -15 -30 -8 -9 -15 -11 -15
-5 0 16 -24 9 -32 -9 -5 -12 -7 -12 -7 3 -1 22 -31 23 -31 0 0 -15 -2 -14 -15
3 -8 11 -15 14 -15 7 0 -16 -30 -17 -30 -2 0 5 -4 8 -9 5 -10 -6 -20 25 -22
64 l-1 25 -7 -25 c-6 -21 -8 -17 -14 24 -4 30 -3 54 3 60 5 5 10 25 10 44 0
26 -3 33 -15 28 -11 -4 -15 2 -15 27 0 24 3 28 10 17 7 -11 9 -3 7 28 -1 29
-6 41 -14 37 -15 -5 -17 21 -3 30 6 4 8 11 4 16 -3 5 -10 7 -15 4 -5 -4 -9 -2
-9 4 0 5 5 13 10 16 6 3 10 26 10 50 0 24 -4 47 -10 50 -15 9 -12 25 4 25 7 0
16 -10 19 -22 4 -12 9 -19 13 -16 3 4 -1 31 -10 61 -19 66 -20 75 -4 59 30
-30 37 -6 7 26 -12 13 -17 27 -12 35 11 18 13 38 2 31 -5 -3 -9 2 -9 11 0 10
5 13 13 9 9 -6 9 -5 0 7 -6 8 -11 25 -11 39 1 14 -3 34 -7 44 -6 14 -5 17 4
12 8 -6 10 -1 6 16 -4 17 -2 25 7 25 10 0 13 -10 11 -31 -1 -17 0 -23 3 -13 6
18 6 18 20 0 7 -10 14 -24 14 -31 0 -8 9 -25 20 -39 25 -32 25 -33 -6 57 -31
88 -67 338 -52 357 6 7 8 19 5 27 -3 7 -1 18 3 22 5 5 12 50 15 99 3 49 9 92
14 95 4 3 11 14 16 25 7 18 9 17 15 -10 6 -25 8 -27 15 -12 4 10 3 29 -4 44
-14 30 -6 63 16 63 12 0 13 8 8 40 -7 43 0 80 16 80 6 0 18 -7 27 -16z m2472
-594 c0 -5 -5 -10 -11 -10 -5 0 -7 5 -4 10 3 6 8 10 11 10 2 0 4 -4 4 -10z
m74 -562 c4 -17 2 -28 -4 -28 -5 0 -10 14 -10 32 0 36 4 35 14 -4z m30 -74 c4
-9 1 -23 -5 -30 -6 -8 -9 -23 -6 -34 3 -11 2 -18 -3 -15 -11 7 -22 73 -15 85
9 15 22 12 29 -6z m-1714 -153 c0 -6 -4 -13 -10 -16 -5 -3 -10 1 -10 9 0 9 5
16 10 16 6 0 10 -4 10 -9z m1657 -23 c-3 -7 -5 -2 -5 12 0 14 2 19 5 13 2 -7
2 -19 0 -25z m106 -93 c-3 -9 -8 -14 -10 -11 -3 3 -2 9 2 15 9 16 15 13 8 -4z
m-2062 -28 c-10 -9 -11 -8 -5 6 3 10 9 15 12 12 3 -3 0 -11 -7 -18z m2153 -43
c4 -10 1 -14 -6 -12 -15 5 -23 28 -10 28 5 0 13 -7 16 -16z m-2574 -40 c0 -8
-5 -12 -10 -9 -6 4 -8 11 -5 16 9 14 15 11 15 -7z m507 -66 c-3 -8 -6 -5 -6 6
-1 11 2 17 5 13 3 -3 4 -12 1 -19z m-768 -1 c13 -17 71 -20 71 -5 0 7 5 6 14
-1 8 -7 17 -8 20 -3 3 5 18 8 33 6 15 -1 34 3 42 9 12 10 13 8 9 -10 -6 -22 1
-27 29 -24 12 2 46 -53 38 -61 -3 -3 2 -5 11 -5 12 0 14 8 9 36 -4 26 -3 32 4
21 6 -8 11 -10 11 -3 0 6 15 11 34 11 26 0 33 -4 29 -16 -2 -11 6 -21 27 -30
16 -8 30 -20 30 -28 0 -8 9 -14 20 -14 16 0 19 -5 15 -32 -3 -18 -3 -27 1 -20
8 17 24 15 24 -3 0 -8 5 -15 10 -15 6 0 10 -5 10 -11 0 -14 25 -39 39 -39 20
0 12 -47 -9 -53 -20 -5 -29 -37 -10 -37 6 0 8 -12 5 -27 -6 -26 -5 -26 6 -8 7
11 18 24 26 28 7 4 13 15 13 23 0 8 5 12 11 8 6 -3 8 -15 5 -26 -6 -24 19 -55
28 -35 5 9 7 9 12 -1 3 -6 10 -10 15 -6 5 3 9 0 9 -5 0 -6 -4 -11 -10 -11 -5
0 -10 -5 -10 -10 0 -6 3 -9 8 -9 26 4 52 -3 52 -15 0 -9 -7 -13 -18 -11 -15 3
-18 -2 -14 -21 3 -19 1 -23 -12 -18 -11 4 -16 1 -16 -10 0 -19 -16 -21 -23 -3
-4 8 -6 9 -6 0 -1 -6 6 -18 14 -27 17 -16 20 -36 6 -36 -5 0 -11 9 -14 20 -6
22 -23 27 -24 8 0 -7 -4 -21 -8 -30 -5 -13 -2 -16 13 -13 17 3 18 1 8 -20 -6
-13 -14 -21 -18 -19 -3 2 -8 -1 -11 -8 -2 -7 -2 0 1 16 3 21 1 26 -8 21 -7 -5
-11 -4 -8 1 3 5 0 15 -8 22 -8 7 -14 10 -14 7 0 -4 -7 1 -15 9 -13 13 -20 13
-35 3 -11 -6 -20 -17 -20 -24 0 -6 -2 -20 -5 -30 -3 -10 1 -4 9 12 14 28 17
29 20 6 2 -15 16 -25 16 -12 0 7 5 9 10 6 18 -11 10 -26 -12 -23 -15 2 -22 -2
-20 -11 2 -10 -4 -12 -24 -7 -22 6 -25 4 -20 -9 3 -9 6 -22 6 -28 0 -7 4 -6 9
2 8 12 15 13 35 3 16 -7 28 -8 31 -2 4 6 11 10 18 10 6 0 1 -7 -11 -16 -12 -8
-26 -13 -31 -9 -18 10 -61 -17 -60 -39 0 -12 3 -15 6 -8 2 6 16 12 29 12 13 0
24 4 24 8 0 13 30 10 31 -2 0 -6 2 -21 5 -34 4 -22 3 -22 -18 -8 -33 24 -38
20 -37 -26 1 -39 2 -40 8 -13 5 25 8 27 14 12 4 -10 11 -15 17 -12 5 3 10 4
10 1 0 -2 3 -12 7 -22 4 -12 3 -15 -5 -10 -7 4 -12 1 -12 -9 0 -9 5 -13 10
-10 12 7 12 7 16 -67 1 -31 8 -66 14 -77 8 -16 7 -26 -6 -45 -10 -17 -14 -36
-10 -58 6 -32 6 -33 -5 -5 -8 20 -8 36 0 59 15 42 14 53 -4 38 -8 -7 -15 -22
-15 -34 0 -11 -7 -30 -15 -40 -9 -12 -15 -14 -15 -7 0 7 -6 11 -12 8 -7 -2
-12 -9 -11 -14 1 -6 -9 -8 -23 -5 -21 4 -25 9 -21 28 3 19 1 22 -8 14 -9 -8
-15 -8 -20 0 -3 5 -1 10 4 10 6 0 11 5 11 11 0 7 -11 9 -26 6 -28 -5 -46 7
-112 71 -19 17 -36 32 -38 32 -11 0 -124 94 -124 103 0 6 -3 8 -6 4 -3 -3 -15
3 -27 13 -11 11 -24 17 -29 14 -4 -3 -8 1 -8 8 0 18 -33 45 -48 40 -7 -2 -12
4 -12 13 0 9 -4 13 -10 10 -5 -3 -10 -2 -10 3 0 5 -11 14 -25 20 -15 7 -25 20
-25 33 0 13 -5 19 -13 16 -9 -3 -13 6 -12 34 0 21 3 39 6 39 6 0 11 63 13 153
1 26 5 47 10 47 6 0 2 6 -9 13 -12 10 -14 16 -7 21 7 4 12 18 12 32 0 14 -4
23 -9 20 -5 -3 -3 11 5 32 7 20 13 43 14 51 0 8 8 20 18 27 15 12 15 13 1 14
-12 0 -16 8 -13 36 1 20 6 39 10 42 4 4 4 -5 2 -21 -3 -15 -1 -30 3 -33 9 -5
13 16 10 54 -1 12 3 22 9 22 5 0 10 7 10 15 0 8 6 12 14 9 8 -3 17 0 22 7 4 8
3 10 -4 5 -7 -4 -12 -2 -12 3 0 15 15 14 29 -2z m386 -47 c3 -5 1 -10 -4 -10
-6 0 -11 5 -11 10 0 6 2 10 4 10 3 0 8 -4 11 -10z m362 -112 c-3 -8 -6 -5 -6
6 -1 11 2 17 5 13 3 -3 4 -12 1 -19z m-101 -375 c-10 -10 -19 5 -10 18 6 11 8
11 12 0 2 -7 1 -15 -2 -18z m64 7 c0 -5 -2 -10 -4 -10 -3 0 -8 5 -11 10 -3 6
-1 10 4 10 6 0 11 -4 11 -10z m-190 -90 c0 -5 -4 -10 -10 -10 -5 0 -10 5 -10
10 0 6 5 10 10 10 6 0 10 -4 10 -10z m-1783 -22 c-3 -8 -6 -5 -6 6 -1 11 2 17
5 13 3 -3 4 -12 1 -19z m13 -58 c0 -5 -2 -10 -4 -10 -3 0 -8 5 -11 10 -3 6 -1
10 4 10 6 0 11 -4 11 -10z m1825 -70 c-3 -5 -10 -10 -16 -10 -5 0 -9 5 -9 10
0 6 7 10 16 10 8 0 12 -4 9 -10z m5 -127 c0 -35 -3 -44 -14 -40 -8 3 -17 1
-20 -6 -2 -7 -5 11 -5 38 -1 44 2 51 19 52 17 2 20 -4 20 -44z m40 -98 c0 -7
5 -15 12 -17 7 -3 6 -7 -5 -11 -11 -4 -17 -1 -17 7 0 8 -3 22 -7 32 -4 12 -3
15 5 10 7 -4 12 -13 12 -21z m-30 -24 c-1 -13 -28 -41 -41 -41 -10 0 -10 3 -1
12 7 7 12 20 12 30 0 11 5 15 15 12 8 -4 15 -9 15 -13z m100 -31 c0 -5 -4 -10
-10 -10 -5 0 -10 5 -10 10 0 6 5 10 10 10 6 0 10 -4 10 -10z m-180 -50 c0 -5
-4 -10 -10 -10 -5 0 -10 5 -10 10 0 6 5 10 10 10 6 0 10 -4 10 -10z m37 -12
c-3 -8 -6 -5 -6 6 -1 11 2 17 5 13 3 -3 4 -12 1 -19z m103 16 c0 -8 -19 -13
-24 -6 -3 5 1 9 9 9 8 0 15 -2 15 -3z m-120 -39 c0 -8 -2 -15 -4 -15 -2 0 -6
7 -10 15 -3 8 -1 15 4 15 6 0 10 -7 10 -15z m-1833 -87 c-3 -8 -6 -5 -6 6 -1
11 2 17 5 13 3 -3 4 -12 1 -19z m310 -300 c-3 -8 -6 -5 -6 6 -1 11 2 17 5 13
3 -3 4 -12 1 -19z m14 -28 c4 -42 1 -68 -9 -85 -11 -20 -11 -20 -13 0 -1 11
-1 27 0 35 1 8 2 25 2 38 -1 21 18 33 20 12z"/>
<path d="M1520 3203 c0 -5 5 -15 10 -23 8 -12 10 -11 10 8 0 12 -4 22 -10 22
-5 0 -10 -3 -10 -7z"/>
<path d="M1472 2950 c0 -14 2 -19 5 -12 2 6 2 18 0 25 -3 6 -5 1 -5 -13z"/>
<path d="M2877 2534 c-4 -4 -7 -19 -6 -33 l0 -26 10 24 c10 26 8 47 -4 35z"/>
<path d="M2590 2101 c0 -6 5 -13 10 -16 6 -3 10 1 10 9 0 9 -4 16 -10 16 -5 0
-10 -4 -10 -9z"/>
<path d="M2570 2081 c0 -6 5 -13 10 -16 6 -3 10 1 10 9 0 9 -4 16 -10 16 -5 0
-10 -4 -10 -9z"/>
<path d="M2690 1941 c0 -6 5 -13 10 -16 6 -3 10 1 10 9 0 9 -4 16 -10 16 -5 0
-10 -4 -10 -9z"/>
<path d="M2730 1924 c0 -8 5 -12 10 -9 6 3 10 10 10 16 0 5 -4 9 -10 9 -5 0
-10 -7 -10 -16z"/>
<path d="M1801 1894 c0 -11 3 -14 6 -6 3 7 2 16 -1 19 -3 4 -6 -2 -5 -13z"/>
<path d="M2331 1894 c0 -11 3 -14 6 -6 3 7 2 16 -1 19 -3 4 -6 -2 -5 -13z"/>
<path d="M2211 1864 c0 -11 3 -14 6 -6 3 7 2 16 -1 19 -3 4 -6 -2 -5 -13z"/>
<path d="M2835 1840 c-3 -5 -4 -10 -1 -10 2 0 11 -3 20 -6 11 -4 16 -1 16 10
0 18 -25 22 -35 6z"/>
<path d="M1765 1523 c3 -10 11 -43 17 -73 5 -30 16 -63 24 -74 8 -11 14 -33
14 -48 0 -16 3 -28 8 -28 8 0 32 -48 32 -66 0 -6 7 -18 17 -25 15 -13 16 -11
9 14 -4 16 -2 27 4 27 5 0 10 -6 10 -14 0 -7 7 -19 15 -26 20 -16 19 0 -1 28
-9 13 -13 29 -10 37 3 8 0 17 -6 21 -7 5 -5 11 6 20 28 20 9 38 -20 20 -19
-13 -22 -13 -18 -2 3 8 -3 19 -15 25 -11 6 -25 29 -31 51 -6 22 -15 40 -20 40
-5 0 -12 20 -16 45 -3 25 -11 45 -16 45 -6 0 -7 -8 -3 -17z"/>
<path d="M1890 1392 c0 -10 22 -32 32 -32 15 0 8 15 -12 28 -11 7 -20 9 -20 4z"/>
<path d="M1785 1340 c-3 -5 -1 -10 4 -10 6 0 11 5 11 10 0 6 -2 10 -4 10 -3 0
-8 -4 -11 -10z"/>
<path d="M1942 1240 c0 -14 2 -19 5 -12 2 6 2 18 0 25 -3 6 -5 1 -5 -13z"/>
<path d="M2000 1169 c0 -5 5 -7 10 -4 6 3 10 8 10 11 0 2 -4 4 -10 4 -5 0 -10
-5 -10 -11z"/>
<path d="M1865 1020 c-3 -5 -1 -10 4 -10 6 0 11 5 11 10 0 6 -2 10 -4 10 -3 0
-8 -4 -11 -10z"/>
<path d="M1950 950 c0 -5 5 -10 10 -10 6 0 10 5 10 10 0 6 -4 10 -10 10 -5 0
-10 -4 -10 -10z"/>
<path d="M1912 880 c0 -14 2 -19 5 -12 2 6 2 18 0 25 -3 6 -5 1 -5 -13z"/>
<path d="M1921 674 c0 -11 3 -14 6 -6 3 7 2 16 -1 19 -3 4 -6 -2 -5 -13z"/>
<path d="M2020 770 c0 -19 3 -21 12 -12 9 9 9 15 0 24 -9 9 -12 7 -12 -12z"/>
<path d="M3635 4373 c-58 -72 -83 -93 -100 -86 -13 4 -16 3 -11 -5 4 -7 3 -12
-2 -12 -6 0 -18 -13 -29 -28 -10 -15 -27 -28 -38 -27 -11 0 -21 -7 -23 -17 -3
-14 2 -15 35 -8 23 6 40 5 43 -1 8 -12 70 49 70 68 0 8 14 26 30 40 18 14 30
34 30 48 0 13 5 25 12 27 6 2 9 9 7 15 -2 6 -13 -1 -24 -14z"/>
<path d="M3280 4314 c-48 -15 -117 -49 -138 -71 -11 -11 -6 -12 28 -8 23 3 51
10 61 16 11 5 19 6 19 2 0 -4 4 -1 9 6 12 19 76 19 118 1 43 -19 53 -5 20 25
-39 37 -66 44 -117 29z"/>
<path d="M3460 4238 c0 -4 4 -8 9 -8 6 0 12 4 15 8 3 5 -1 9 -9 9 -8 0 -15 -4
-15 -9z"/>
<path d="M1621 4204 c0 -11 3 -14 6 -6 3 7 2 16 -1 19 -3 4 -6 -2 -5 -13z"/>
<path d="M1636 4181 c-4 -7 -5 -15 -2 -18 9 -9 19 4 14 18 -4 11 -6 11 -12 0z"/>
<path d="M4290 4001 c0 -5 7 -11 15 -15 8 -3 15 -1 15 3 0 5 -7 11 -15 15 -8
3 -15 1 -15 -3z"/>
<path d="M3679 3918 c-10 -19 -13 -20 -23 -6 -19 26 -90 21 -149 -11 -29 -16
-74 -32 -102 -35 -27 -4 -72 -13 -100 -21 -27 -8 -53 -14 -57 -15 -4 0 -27 -8
-50 -16 -74 -27 -270 -73 -285 -67 -8 3 -19 0 -24 -8 -7 -11 -9 -9 -9 6 0 17
-2 17 -10 5 -5 -8 -10 -11 -10 -5 0 5 -14 -6 -31 -24 -31 -35 -27 -50 13 -51
9 0 23 -6 30 -13 7 -7 47 -23 88 -36 41 -13 82 -25 90 -29 8 -3 23 -4 33 -3
10 2 27 -5 37 -14 11 -10 26 -15 35 -11 9 3 25 1 35 -4 13 -7 20 -6 24 3 3 6
3 2 1 -9 -5 -18 0 -22 37 -29 63 -13 198 -7 253 10 27 8 52 12 57 9 4 -3 8 0
8 5 0 6 7 11 15 11 8 0 15 7 15 17 0 9 3 13 7 10 13 -14 34 69 39 147 3 72 6
83 34 111 21 21 30 41 30 63 0 37 -14 42 -31 10z m-589 -248 c0 -5 -4 -10 -10
-10 -5 0 -10 5 -10 10 0 6 5 10 10 10 6 0 10 -4 10 -10z m50 -6 c0 -9 -5 -14
-12 -12 -18 6 -21 28 -4 28 9 0 16 -7 16 -16z m60 1 c0 -9 -6 -12 -15 -9 -8 4
-12 10 -9 15 8 14 24 10 24 -6z m55 -5 c-3 -5 -13 -10 -21 -10 -8 0 -12 5 -9
10 3 6 13 10 21 10 8 0 12 -4 9 -10z"/>
<path d="M1600 3880 c0 -11 2 -20 4 -20 2 0 6 9 9 20 3 11 1 20 -4 20 -5 0 -9
-9 -9 -20z"/>
<path d="M1576 3875 c4 -8 8 -15 10 -15 2 0 4 7 4 15 0 8 -4 15 -10 15 -5 0
-7 -7 -4 -15z"/>
<path d="M4230 2114 c0 -30 23 -71 38 -66 18 6 14 24 -13 57 -22 27 -24 28
-25 9z"/>
<path d="M4278 1990 c5 -35 13 -33 17 5 2 15 -2 25 -9 25 -8 0 -11 -11 -8 -30z"/>
<path d="M4253 1970 c0 -25 2 -35 4 -22 2 12 2 32 0 45 -2 12 -4 2 -4 -23z"/>
<path d="M4626 847 c3 -10 9 -15 12 -12 3 3 0 11 -7 18 -10 9 -11 8 -5 -6z"/>
<path d="M4671 760 c6 -16 15 -30 19 -30 5 0 2 14 -6 30 -9 17 -17 30 -19 30
-2 0 1 -13 6 -30z"/>
<path d="M270 95 c0 -8 8 -15 18 -14 10 0 12 3 4 6 -6 2 -10 9 -6 14 3 5 0 9
-5 9 -6 0 -11 -7 -11 -15z"/>
</g>
</svg>
